<?xml version="1.0" encoding="utf-8"?>
<!-- Generator: Adobe Illustrator 26.0.1, SVG Export Plug-In . SVG Version: 6.00 Build 0)  -->
<svg version="1.1" id="Layer_1" xmlns="http://www.w3.org/2000/svg" xmlns:xlink="http://www.w3.org/1999/xlink" x="0px" y="0px"
	 viewBox="0 0 116 114" style="enable-background:new 0 0 116 114;" xml:space="preserve">
<style type="text/css">
	.st0{fill:#EDFCF6;}
	.st1{fill:#5AD6A6;}
</style>
<g transform="translate(-248 -4274)">
	<g transform="matrix(1, 0, 0, 1, 248, 4274)">
		<path class="st0" d="M31.5,2.1h52.9c16.9,0,30.5,13.7,30.5,30.5v48.9c0,16.9-13.7,30.5-30.5,30.5H31.5C14.7,112,1,98.3,1,81.5
			V32.6C1,15.7,14.7,2.1,31.5,2.1z"/>
	</g>
	<path class="st1" d="M300.8,4349.3c-1,1-2.6,1-3.6,0c0,0,0,0,0,0l-14.3-14.3c-1.5-1.5-1.5-3.9,0-5.4c0,0,0,0,0,0l1.8-1.8
		c1.5-1.5,3.9-1.5,5.4,0c0,0,0,0,0,0l8.9,8.9l24.1-24.1c1.5-1.5,3.9-1.5,5.4,0c0,0,0,0,0,0l1.8,1.8c1.5,1.5,1.5,3.9,0,5.4
		c0,0,0,0,0,0L300.8,4349.3z"/>
</g>
</svg>
