<?xml version="1.0" encoding="utf-8"?>
<!-- Generator: Adobe Illustrator 26.0.1, SVG Export Plug-In . SVG Version: 6.00 Build 0)  -->
<svg version="1.1" xmlns="http://www.w3.org/2000/svg" xmlns:xlink="http://www.w3.org/1999/xlink" x="0px" y="0px"
	 viewBox="0 0 120.9 130" style="enable-background:new 0 0 120.9 130;" xml:space="preserve">
<style type="text/css">
	.st0{display:none;}
	.st1{display:inline;}
	.st2{opacity:0.1;fill:#875FFF;enable-background:new    ;}
	.st3{fill:#8056FF;}
	.st4{opacity:0.1;fill:#57E5AC;enable-background:new    ;}
	.st5{fill:none;stroke:#5AD6A6;stroke-width:2;stroke-miterlimit:10;}
	.st6{fill:none;stroke:#5AD6A6;stroke-width:2;stroke-linecap:round;stroke-miterlimit:10;}
	.st7{opacity:0.1;fill:#FFE014;enable-background:new    ;}
	.st8{fill:none;stroke:#FEB301;stroke-width:2;stroke-miterlimit:10;}
</style>
<g id="Layer_1" class="st0">
	<g transform="translate(30 20)" class="st1">
		<g transform="matrix(1, 0, 0, 1, -30, -20)">
			<path class="st2" d="M25.1,7.3h71.1c13.7,0,24.8,11.1,24.8,24.8v66.1c0,13.7-11.1,24.8-24.8,24.8H25.1
				c-13.7,0-24.8-11.1-24.8-24.8V32.1C0.3,18.4,11.4,7.3,25.1,7.3z"/>
		</g>
		<g transform="translate(22 16)">
			<g transform="translate(9.715 11.334)">
				<path class="st3" d="M16.4,5.2H-7.7C-8.4,5.2-9,5.8-9,6.5c0,0.7,0.6,1.3,1.3,1.3h24.1c0.7,0,1.3-0.6,1.3-1.4
					C17.7,5.7,17.1,5.2,16.4,5.2L16.4,5.2z"/>
			</g>
			<g transform="translate(3.238 29.144)">
				<path class="st3" d="M-9.2,16.8c-2.2,0-4,1.8-4,4c0,2.2,1.8,4,4,4c2.2,0,4-1.8,4-4l0,0C-5.2,18.6-7,16.8-9.2,16.8z M-9.2,22.1
					c-0.7,0-1.3-0.6-1.3-1.3c0-0.7,0.6-1.3,1.3-1.3s1.3,0.6,1.3,1.3c0,0,0,0,0,0C-7.9,21.5-8.5,22.1-9.2,22.1z"/>
			</g>
			<g transform="translate(3.238 22.667)">
				<path class="st3" d="M-9.2,12.5c-2.2,0-4,1.8-4,4c0,2.2,1.8,4,4,4c2.2,0,4-1.8,4-4l0,0C-5.2,14.3-7,12.5-9.2,12.5z M-9.2,17.9
					c-0.7,0-1.3-0.6-1.3-1.3c0-0.7,0.6-1.3,1.3-1.3s1.3,0.6,1.3,1.3c0,0,0,0,0,0C-7.9,17.3-8.5,17.9-9.2,17.9z"/>
			</g>
			<g transform="translate(3.238 16.191)">
				<path class="st3" d="M-9.2,8.3c-2.2,0-4,1.8-4,4c0,2.2,1.8,4,4,4s4-1.8,4-4C-5.2,10.1-7,8.3-9.2,8.3z M-9.2,13.7
					c-0.7,0-1.3-0.6-1.3-1.3c0-0.7,0.6-1.3,1.3-1.3c0.7,0,1.3,0.6,1.3,1.3l0,0C-7.9,13.1-8.5,13.7-9.2,13.7z"/>
			</g>
			<g transform="translate(3.238 9.715)">
				<path class="st3" d="M-9.2,4.1c-2.2,0-4,1.8-4,4c0,2.2,1.8,4,4,4s4-1.8,4-4C-5.2,5.9-7,4.1-9.2,4.1z M-9.2,9.4
					c-0.7,0-1.3-0.6-1.3-1.3c0-0.7,0.6-1.3,1.3-1.3c0.7,0,1.3,0.6,1.3,1.3c0,0,0,0,0,0C-7.9,8.8-8.5,9.4-9.2,9.4z"/>
			</g>
			<path class="st3" d="M41.8,11.1c-1.9,0-3.6,0.7-5,2.1l-3.7,3.7l-0.4,0.4V7.1c0-2.2-1.8-4-4-4h-6.9c-0.6-1.6-2.1-2.7-3.8-2.7h-4.7
				c-1.5-2.6-4.7-3.4-7.3-2c-0.8,0.5-1.5,1.2-2,2h-4.7c-1.7,0-3.2,1.1-3.8,2.7h-6.9c-2.2,0-4,1.8-4,4V58c0,2.2,1.8,4,4,4h40.1
				c2.2,0,4-1.8,4-4V37.1l10.3-10.3l0,0l0,0l3.7-3.7c2.7-2.7,2.7-7.2,0-9.9C45.5,11.9,43.7,11.1,41.8,11.1L41.8,11.1z M-2,4.4
				c0-0.7,0.6-1.3,1.3-1.3l0,0H5c0.6,0,1.1-0.4,1.3-0.9c0.5-1.4,2-2.1,3.4-1.6c0.8,0.3,1.4,0.9,1.6,1.6c0.2,0.5,0.7,0.9,1.3,0.9h5.6
				c0.7,0,1.3,0.6,1.3,1.3v1.3H-2V4.4z M30.1,58c0,0.7-0.6,1.3-1.3,1.3l0,0h-40.1c-0.7,0-1.3-0.6-1.3-1.3l0,0V7.1
				c0-0.7,0.6-1.3,1.3-1.3h6.7v1.3c0,0.7,0.6,1.3,1.3,1.3h24.1c0.7,0,1.3-0.6,1.3-1.3V5.8h6.7c0.7,0,1.3,0.6,1.3,1.3v12.8l-7.4,7.4
				c-0.2-0.1-0.4-0.2-0.6-0.2H2c-0.7,0-1.4,0.6-1.4,1.3c0,0.7,0.6,1.4,1.3,1.4c0,0,0.1,0,0.1,0h18.2l-8,8H2c-0.7,0-1.3,0.6-1.3,1.4
				c0,0.7,0.6,1.3,1.3,1.3h9l-2,8H2c-0.7,0-1.4,0.6-1.4,1.3c0,0.7,0.6,1.4,1.3,1.4c0,0,0.1,0,0.1,0h8c0.1,0,0.2,0,0.3,0l10.7-2.7
				c0,0,0.1,0,0.1,0c0.2-0.1,0.3-0.1,0.5-0.3c0,0,0.1,0,0.1,0l8.4-8.4L30.1,58L30.1,58z M13.7,40.8c2.6,0.8,4.7,2.9,5.5,5.5
				l-7.3,1.8L13.7,40.8z M21.5,44.6c-1.1-2.8-3.3-5-6.1-6.1l18.8-18.8l6.1,6.1L21.5,44.6z M44.9,21.2L42.2,24L36,17.8l2.7-2.7
				c1.7-1.7,4.5-1.6,6.1,0.1C46.6,16.8,46.6,19.5,44.9,21.2L44.9,21.2z"/>
		</g>
	</g>
</g>
<g id="Layer_2">
	<g transform="translate(30 20)">
		<g transform="matrix(1, 0, 0, 1, -30, -20)">
			<path class="st4" d="M24.8,7.3h71.1c13.7,0,24.8,11.1,24.8,24.8v66.1c0,13.7-11.1,24.8-24.8,24.8H24.8C11.1,123,0,111.9,0,98.2
				V32.1C0,18.4,11.1,7.3,24.8,7.3z"/>
		</g>
		<g transform="translate(15.5 19)">
			<path class="st5" d="M-11.6-0.3h57.8c4.6,0,8.3,3.7,8.3,8.3v34.7c0,4.6-3.7,8.3-8.3,8.3h-57.8c-4.6,0-8.3-3.7-8.3-8.3V8
				C-19.9,3.4-16.2-0.3-11.6-0.3z"/>
			<line class="st5" x1="-19.9" y1="38.3" x2="54.7" y2="38.3"/>
			<line class="st5" x1="21" y1="50.8" x2="21" y2="59.5"/>
			<line class="st6" x1="25.4" y1="59.6" x2="7.9" y2="59.6"/>
			<line class="st5" x1="12.2" y1="50.8" x2="12.2" y2="59.5"/>
			<path class="st6" d="M0.3,31.3l7.5-12.8c0.2-0.3,0.5-0.4,0.8-0.2c0.1,0,0.1,0.1,0.1,0.1l5.7,6.5c0.2,0.2,0.6,0.3,0.8,0.1
				c0,0,0.1-0.1,0.1-0.1l3.2-5.2c0.2-0.3,0.5-0.4,0.8-0.2c0.1,0,0.1,0.1,0.2,0.1l5.5,7c0.2,0.3,0.6,0.3,0.8,0.1c0,0,0.1-0.1,0.1-0.1
				l9.4-13.5"/>
		</g>
	</g>
</g>
<g id="Layer_3" class="st0">
	<g transform="translate(30 20)" class="st1">
		<g transform="matrix(1, 0, 0, 1, -30, -20)">
			<path class="st7" d="M24.8,7.3h71.1c13.7,0,24.8,11.1,24.8,24.8v66.1c0,13.7-11.1,24.8-24.8,24.8H24.8C11.1,123,0,111.9,0,98.2
				V32.1C0,18.4,11.1,7.3,24.8,7.3z"/>
		</g>
		<g transform="translate(18 17)">
			<ellipse class="st8" cx="11.9" cy="28.6" rx="21" ry="20.4"/>
			<circle class="st8" cx="11.9" cy="28.6" r="30.2"/>
			<line class="st8" x1="-11.2" y1="9.2" x2="-4.1" y2="15.4"/>
			<line class="st8" x1="-3.1" y1="2.4" x2="2.1" y2="10.6"/>
			<line class="st8" x1="23.6" y1="11.7" x2="28.6" y2="3.5"/>
			<line class="st8" x1="28.6" y1="16.2" x2="36.4" y2="11"/>
			<line class="st8" x1="-11.2" y1="47.8" x2="-4.1" y2="41.6"/>
			<line class="st8" x1="-3.1" y1="54.5" x2="2.1" y2="46.4"/>
			<line class="st8" x1="23.6" y1="45.3" x2="28.6" y2="53.5"/>
			<line class="st8" x1="28.6" y1="40.7" x2="36.4" y2="45.9"/>
		</g>
	</g>
</g>
</svg>
